<svg
  width="32"
  height="32"
  viewBox="0 0 1051 1051"
  fill="none"
  xmlns="http://www.w3.org/2000/svg"
>
  <path
    d="M589.837 34.7957L588.904 32.9334C588.442 32.4713 587.975 32 587.046 32L585.179 32.4713C584.25 33.4001 583.783 33.8669 583.783 34.7957L544.193 751.501L550.252 750.569L588.442 53.3774L634.086 128.363H633.619C668.084 229.888 682.521 337.937 676.934 452.506L679.73 456.698L724.907 536.799L727.698 539.595C797.095 600.604 874.871 641.589 961.038 662.545L981.996 696.547L984.791 697.476L985.258 696.547L588.904 48.2573L589.837 34.75"
    fill="#CCCCCC"
  />
  <path
    d="M575.867 287.682C624.769 387.816 642.464 539.174 629.427 741.766L819.915 718.479L575.867 287.682Z"
    fill="#CCCCCC"
  />
  <path
    d="M1009.94 727.792C1029.5 725.465 1042.07 721.274 1047.66 715.22L50.9731 836.775H50.5063C50.9731 878.224 69.6013 910.825 105.929 934.11C115.707 941.096 125.957 946.219 135.269 949.479C144.119 939.236 153.902 931.782 165.547 924.795H166.01C270.339 861.458 425.432 851.676 630.356 894.991L632.685 895.454C655.043 900.112 677.396 905.703 698.358 912.221C704.407 913.153 709.532 911.29 713.723 907.563C721.177 901.974 730.494 897.783 743.068 894.991V894.525C776.138 835.842 820.844 792.531 876.737 764.121C915.394 745.028 960.105 732.45 1009.94 727.792Z"
    fill="#CCCCCC"
  />
  <path
    d="M531.157 745.96L576.796 46.4408C510.662 301.657 404.47 540.107 258.693 761.325L531.157 745.96Z"
    fill="#CCCCCC"
  />
  <path
    d="M274.53 182.433L272.668 181.5L270.806 181.967L269.872 184.291L232.149 789.735L237.736 789.269L275.464 184.291L274.53 182.433Z"
    fill="#CCCCCC"
  />
  <path
    d="M221.437 776.695L261.489 186.158L50.5063 794.86L221.437 776.695Z"
    fill="#CCCCCC"
  />
  <path
    d="M229.82 973.538C177.188 998.686 138.998 1002.88 114.778 987.511C90.5586 971.21 53.2976 974.935 3 998.686"
    stroke="#CCCCCC"
    stroke-width="12"
    stroke-linecap="round"
    stroke-linejoin="round"
  />
  <path
    d="M353.239 977.262C343.461 974.002 332.749 971.675 321.57 970.742C298.75 968.881 271.268 977.729 239.131 996.825C206.995 1016.38 168.339 1023.84 122.228 1019.64"
    stroke="#CCCCCC"
    stroke-width="12"
    stroke-linecap="round"
    stroke-linejoin="round"
  />
  <path
    d="M640.606 929.758C418.907 884.119 259.16 894.829 161.356 962.359"
    stroke="#CCCCCC"
    stroke-width="12"
    stroke-linecap="round"
    stroke-linejoin="round"
  />
  <path
    d="M780.329 951.649C770.546 947.923 759.834 945.594 748.655 945.127C725.836 943.266 698.358 952.114 666.222 971.21C634.086 990.303 595.429 997.754 549.318 994.029"
    stroke="#CCCCCC"
    stroke-width="12"
    stroke-linecap="round"
    stroke-linejoin="round"
  />
  <path
    d="M482.717 188.02C459.892 174.046 436.144 177.776 411.457 199.661C390.033 177.776 367.68 174.046 344.389 188.02"
    stroke="#CCCCCC"
    stroke-width="29"
    stroke-linecap="round"
    stroke-linejoin="round"
  />
  <path
    d="M431.019 109.777C407.732 95.8074 384.913 101.394 361.622 126.542C338.797 101.394 315.516 95.8074 292.225 109.777"
    stroke="#CCCCCC"
    stroke-width="29"
    stroke-linecap="round"
    stroke-linejoin="round"
  />
</svg>
